<?xml version="1.0" encoding="UTF-8"?>
<svg id="_레이어_1" data-name="레이어_1" xmlns="http://www.w3.org/2000/svg" xmlns:xlink="http://www.w3.org/1999/xlink" version="1.1" viewBox="0 0 1100 1100">
  <!-- Generator: Adobe Illustrator 30.6.0, SVG Export Plug-In . SVG Version: 2.1.4 Build 109)  -->
  <defs>
    <style>
      .st0 {
        fill: url(#millaeIcon06);
      }

      .st1 {
        fill: #326d45;
      }

      .st2 {
        stroke-width: 7px;
      }

      .st2, .st3 {
        fill: #fff;
        stroke: #fff;
        stroke-linejoin: round;
      }

      .st3 {
        stroke-width: 11px;
      }

      .st4 {
        fill: #fffab8;
      }
    </style>
    <linearGradient id="millaeIcon06" data-name="무제 그라디언트" x1="542.08" y1="189.62" x2="550.03" y2="1174.69" gradientTransform="translate(0 1073.9) scale(1 -1)" gradientUnits="userSpaceOnUse">
      <stop offset=".06" stop-color="#ffdbb8"/>
      <stop offset=".06" stop-color="#ffd9b6"/>
      <stop offset=".21" stop-color="#ffb48d"/>
      <stop offset=".35" stop-color="#ff966a"/>
      <stop offset=".5" stop-color="#ff7e50"/>
      <stop offset=".65" stop-color="#ff6d3d"/>
      <stop offset=".81" stop-color="#ff6331"/>
      <stop offset=".98" stop-color="#ff602e"/>
    </linearGradient>
  </defs>
  <g id="_레이어_11" data-name="_레이어_1">
    <rect class="st1" width="1100" height="1100" rx="65.36" ry="65.36"/>
  </g>
  <g id="_레이어_2">
    <g>
      <path class="st0" d="M1034.66,756.25H51.6c-.57,0-1.03-.46-1.03-1.03.56-271.68,220.75-491.52,492.56-491.52s492,219.85,492.56,491.52c0,.57-.46,1.03-1.03,1.03h0Z"/>
      <g>
        <path class="st3" d="M97.32,749.35v-178.83c0-.57.46-1.03,1.03-1.03h44.34c.55,0,1,.43,1.02.98l1.9,40.08c.03.58-.44,1.07-1.02,1.07h-1.07c-.68,0-1.17-.65-.99-1.3,2.87-10.48,6.99-19.1,12.36-25.86,5.59-7.03,12.15-12.22,19.69-15.54,7.53-3.32,15.45-5.45,23.76-5.45,13.28,0,24.22,4.62,32.82,12.94,8.37,8.09,14.33,20.2,17.91,36.28.14.64-.35,1.26-1.01,1.26h-3.06c-.66,0-1.16-.63-1-1.27,2.58-10.73,6.82-19.63,12.74-26.72,6.15-7.36,13.46-12.88,21.93-16.53,8.47-3.66,17.47-5.49,27.01-5.49,11.3,0,21.4,2.47,30.32,7.39,8.92,4.93,15.95,12.07,21.1,21.43,5.15,9.37,7.73,20.8,7.73,34.31v122.27c0,.57-.46,1.03-1.03,1.03h-47.63c-.57,0-1.03-.46-1.03-1.03v-112.79c0-10.52-2.83-18.37-8.48-23.52-5.64-5.15-12.62-7.73-20.94-7.73-6.31,0-11.77,1.36-16.36,4.07-4.6,2.72-8.15,6.51-10.64,11.39-2.49,4.87-3.74,10.63-3.74,17.28v111.29c0,.57-.46,1.03-1.03,1.03h-45.97c-.57,0-1.03-.46-1.03-1.03v-114.29c0-9.08-2.69-16.3-8.06-21.68-5.37-5.37-12.33-8.07-20.86-8.07-5.87,0-11.16,1.34-15.86,3.99-4.71,2.66-8.45,6.56-11.22,11.71s-4.15,11.49-4.15,19.03v109.3c0,.57-.46,1.03-1.03,1.03h-47.46c-.57,0-1.03-.46-1.03-1.03l.04.03Z"/>
        <path class="st2" d="M417.23,544.18c-7.54,0-13.96-2.46-19.27-7.39-5.3-4.92-7.95-10.93-7.95-18.04s2.65-13.12,7.95-18.04,11.73-7.38,19.27-7.38,13.94,2.46,19.19,7.38,7.87,10.94,7.87,18.04-2.62,13.12-7.87,18.04c-5.25,4.93-11.65,7.39-19.19,7.39ZM392.8,747.66v-179.01c0-.57.46-1.03,1.03-1.03h46.82c.57,0,1.03.46,1.03,1.03v179.01c0,.57-.46,1.03-1.03,1.03h-46.82c-.57,0-1.03-.46-1.03-1.03Z"/>
        <path class="st2" d="M603.98,448.4v299.13c0,.57-.46,1.03-1.03,1.03h-49.29c-.57,0-1.03-.46-1.03-1.03v-299.13c0-.57.46-1.03,1.03-1.03h49.29c.57,0,1.03.46,1.03,1.03Z"/>
        <path class="st2" d="M689.73,747.65c-12.89,0-24.43-2.25-34.64-6.75-10.2-4.49-18.23-11.21-24.06-20.14-5.83-8.94-8.75-20.03-8.75-33.27,0-11.3,2.07-20.72,6.2-28.26,4.12-7.53,9.77-13.6,16.95-18.23,7.16-4.62,15.34-8.11,24.52-10.47,9.17-2.38,18.81-4.04,28.89-5.01,11.79-1.22,21.27-2.34,28.43-3.37,7.18-1.03,12.39-2.65,15.68-4.84,3.29-2.18,4.92-5.47,4.92-9.83v-.91c0-5.59-1.24-10.36-3.74-14.32-2.49-3.95-6.11-6.99-10.84-9.11-4.74-2.13-10.51-3.2-17.32-3.2s-12.97,1.07-18.13,3.2c-5.17,2.12-9.37,4.97-12.58,8.57-3.03,3.36-5.22,7.13-6.58,11.3-.15.47-.61.77-1.1.71l-48.15-6.12c-.61-.08-1.02-.67-.87-1.27,2.86-11.67,8.11-21.68,15.77-30.04,7.9-8.63,17.98-15.23,30.27-19.78,12.27-4.55,26.24-6.84,41.92-6.84,11.42,0,22.27,1.34,32.53,4.01,10.27,2.68,19.41,6.81,27.44,12.39,8.03,5.6,14.32,12.68,18.87,21.24,4.55,8.57,6.83,18.81,6.83,30.71v134.78c0,.57-.46,1.03-1.03,1.03h-49.9c-.57,0-1.03-.46-1.03-1.03v-26.02c0-.57-.46-1.03-1.03-1.03h0c-.38,0-.72.21-.9.54-3.24,6.1-7.5,11.49-12.75,16.14-5.4,4.81-11.88,8.54-19.41,11.21-7.53,2.67-16.35,4.01-26.43,4.01h.02ZM705.04,709.55c8.63,0,16.16-1.7,22.6-5.11,6.44-3.4,11.48-7.95,15.13-13.67,3.64-5.7,5.48-12.15,5.48-19.31v-19.65c0-.76-.78-1.25-1.47-.92-1.52.72-3.4,1.44-5.64,2.16-3.04.97-6.5,1.82-10.39,2.55s-7.82,1.4-11.75,2.01c-3.95.62-7.57,1.16-10.86,1.64-6.56.98-12.39,2.52-17.49,4.65-5.11,2.13-9.06,4.99-11.85,8.57s-4.18,8.05-4.18,13.4,1.3,9.42,3.91,12.94c2.61,3.53,6.19,6.2,10.76,8.03,4.55,1.82,9.81,2.73,15.77,2.73l-.02-.02Z"/>
        <path class="st2" d="M918.95,749.8c-20.53,0-38.25-4.26-53.14-12.77-14.88-8.51-26.37-20.53-34.46-36.09-8.08-15.56-12.11-33.85-12.11-54.88s4-38.97,12.03-54.59,19.33-27.83,33.9-36.65c14.59-8.81,31.66-13.22,51.23-13.22,13.49,0,26.56,1.97,38.1,6.35,11.55,4.37,21.11,9.42,29.8,17.99,8.69,8.57,15.44,20.91,20.24,33.73,4.8,12.83,7.2,27.62,7.2,44.39v14.12c0,.57-.46,1.03-1.03,1.03h-168.76c-.57,0-1.03-.46-1.03-1.03v-32.23c0-.57.46-1.03,1.03-1.03h137.36c1.15,0,1.43,1.61.34,1.99l-18.34,6.47c-.66.23-1.35-.26-1.36-.96-.14-9.85-1.78-18.43-4.9-25.73-3.29-7.66-8.11-13.58-14.5-17.76-6.38-4.2-14.25-6.29-23.61-6.29s-17.32,2.12-23.88,6.38-11.57,10.09-15.03,17.5c-3.47,7.41-5.21,15.92-5.21,25.52v24.07c0,11.3,1.94,20.9,5.83,28.81,3.89,7.9,9.39,13.89,16.51,17.95,7.1,4.07,15.4,6.12,24.88,6.12,6.44,0,12.31-.95,17.59-2.83,5.29-1.88,9.79-4.62,13.49-8.2,3.52-3.42,6.26-7.57,8.19-12.46.17-.44.62-.71,1.09-.64l47.43,6.82c.62.09,1.02.7.85,1.3-3.22,11.2-8.79,21-16.73,29.41-8.2,8.69-18.46,15.44-30.8,20.24-12.35,4.8-26.4,7.2-42.21,7.2v-.03Z"/>
      </g>
      <path class="st2" d="M524.18,448.4v299.13c0,.57-.46,1.03-1.03,1.03h-49.29c-.57,0-1.03-.46-1.03-1.03v-299.13c0-.57.46-1.03,1.03-1.03h49.29c.57,0,1.03.46,1.03,1.03Z"/>
    </g>
    <ellipse class="st4" cx="550" cy="760.35" rx="538.42" ry="13.7"/>
  </g>
</svg>