<?xml version="1.0" encoding="UTF-8"?>
<svg id="_레이어_1" data-name="레이어 1" xmlns="http://www.w3.org/2000/svg" xmlns:xlink="http://www.w3.org/1999/xlink" viewBox="200.22 214.05 1100 1100">
  <defs>
    <style>
      .cls-1 {
        fill: #326d45;
      }

      .cls-2 {
        fill: url(#millaeIcon03);
      }

      .cls-3 {
        stroke-width: 7px;
      }

      .cls-3, .cls-4 {
        fill: #fff;
        stroke: #fff;
        stroke-linejoin: round;
      }

      .cls-4 {
        stroke-width: 11px;
      }

      .cls-5 {
        fill: #fffab8;
      }
    </style>
    <linearGradient id="millaeIcon03" data-name="무제 그라디언트 284" x1="742.59" y1="1102.99" x2="750.67" y2="102.34" gradientUnits="userSpaceOnUse">
      <stop offset=".06" stop-color="#ffdbb8"/>
      <stop offset=".06" stop-color="#ffd9b6"/>
      <stop offset=".21" stop-color="#ffb48d"/>
      <stop offset=".35" stop-color="#ff966a"/>
      <stop offset=".5" stop-color="#ff7e50"/>
      <stop offset=".65" stop-color="#ff6d3d"/>
      <stop offset=".81" stop-color="#ff6331"/>
      <stop offset=".98" stop-color="#ff602e"/>
    </linearGradient>
  </defs>
  <rect class="cls-1" x="200.22" y="214.05" width="1100" height="1100" rx="65.36" ry="65.36"/>
  <g>
    <path class="cls-2" d="M1233.09,973.02H254.22c-.57,0-1.03-.47-1.03-1.05.55-276.02,219.81-499.38,490.47-499.38s489.91,223.36,490.46,499.38c0,.58-.46,1.05-1.03,1.05Z"/>
    <g>
      <path class="cls-4" d="M292.44,962.39v-178.07c0-.56.46-1.02,1.02-1.02h44.16c.55,0,.99.43,1.02.97l1.89,39.91c.03.58-.44,1.07-1.02,1.07h-1.07c-.67,0-1.17-.65-.99-1.3,2.86-10.44,6.96-19.02,12.31-25.75,5.56-7,12.1-12.17,19.61-15.47,7.5-3.31,15.38-5.43,23.66-5.43,13.23,0,24.12,4.6,32.68,12.88,8.33,8.06,14.27,20.11,17.84,36.13.14.64-.35,1.25-1,1.25h-3.05c-.66,0-1.15-.62-1-1.27,2.57-10.68,6.8-19.54,12.69-26.61,6.12-7.33,13.41-12.83,21.84-16.46,8.43-3.64,17.39-5.46,26.89-5.46,11.25,0,21.31,2.46,30.19,7.36,8.88,4.9,15.89,12.02,21.01,21.34,5.13,9.33,7.7,20.71,7.7,34.16v121.75c0,.56-.46,1.02-1.02,1.02h-47.43c-.56,0-1.02-.46-1.02-1.02v-112.31c0-10.48-2.82-18.29-8.45-23.42-5.62-5.13-12.57-7.7-20.85-7.7-6.28,0-11.72,1.35-16.29,4.06-4.58,2.7-8.11,6.48-10.59,11.34-2.48,4.85-3.72,10.58-3.72,17.2v110.82c0,.56-.46,1.02-1.02,1.02h-45.77c-.56,0-1.02-.46-1.02-1.02v-113.8c0-9.04-2.68-16.23-8.02-21.58-5.35-5.35-12.28-8.03-20.77-8.03-5.84,0-11.12,1.33-15.8,3.98-4.69,2.65-8.41,6.54-11.17,11.66-2.76,5.13-4.13,11.44-4.13,18.95v108.83c0,.56-.46,1.02-1.02,1.02h-47.26c-.56,0-1.02-.46-1.02-1.02Z"/>
      <path class="cls-3" d="M611,758.09c-7.51,0-13.91-2.45-19.19-7.36-5.28-4.9-7.92-10.88-7.92-17.96s2.64-13.07,7.92-17.96,11.68-7.34,19.19-7.34,13.88,2.45,19.11,7.34c5.23,4.9,7.84,10.89,7.84,17.96s-2.61,13.07-7.84,17.96c-5.23,4.91-11.6,7.36-19.11,7.36ZM586.67,960.7v-178.25c0-.56.46-1.02,1.02-1.02h46.62c.56,0,1.02.46,1.02,1.02v178.25c0,.56-.46,1.02-1.02,1.02h-46.62c-.56,0-1.02-.46-1.02-1.02Z"/>
      <path class="cls-3" d="M796.96,662.72v297.86c0,.56-.46,1.02-1.02,1.02h-49.08c-.56,0-1.02-.46-1.02-1.02v-297.86c0-.56.46-1.02,1.02-1.02h49.08c.56,0,1.02.46,1.02,1.02Z"/>
      <path class="cls-3" d="M882.34,960.7c-12.83,0-24.33-2.24-34.49-6.72-10.16-4.47-18.15-11.17-23.96-20.05-5.81-8.9-8.71-19.94-8.71-33.13,0-11.25,2.06-20.63,6.18-28.14,4.11-7.5,9.73-13.54,16.88-18.15,7.13-4.6,15.27-8.08,24.41-10.43,9.13-2.37,18.73-4.02,28.77-4.99,11.74-1.21,21.18-2.33,28.31-3.36,7.15-1.03,12.34-2.64,15.61-4.82,3.27-2.17,4.9-5.44,4.9-9.79v-.91c0-5.56-1.24-10.32-3.73-14.25-2.48-3.93-6.08-6.96-10.8-9.07-4.72-2.12-10.47-3.19-17.24-3.19s-12.92,1.07-18.05,3.19c-5.15,2.11-9.33,4.95-12.53,8.53-3.02,3.35-5.2,7.1-6.55,11.25-.15.47-.6.77-1.09.7l-47.94-6.1c-.61-.08-1.02-.67-.87-1.26,2.85-11.62,8.08-21.59,15.7-29.92,7.87-8.59,17.91-15.16,30.14-19.7,12.22-4.53,26.13-6.81,41.75-6.81,11.37,0,22.17,1.34,32.39,4,10.22,2.67,19.33,6.78,27.32,12.34,7.99,5.58,14.25,12.62,18.79,21.15,4.53,8.53,6.8,18.73,6.8,30.58v134.2c0,.56-.46,1.02-1.02,1.02h-49.69c-.56,0-1.02-.46-1.02-1.02v-25.91c0-.56-.46-1.02-1.02-1.02h0c-.38,0-.72.21-.89.54-3.23,6.08-7.47,11.44-12.7,16.07-5.38,4.79-11.83,8.51-19.33,11.17-7.5,2.66-16.28,4-26.31,4ZM897.58,922.76c8.59,0,16.09-1.69,22.5-5.09,6.41-3.38,11.44-7.92,15.06-13.62,3.63-5.67,5.45-12.1,5.45-19.23v-19.57c0-.76-.78-1.24-1.46-.92-1.51.72-3.38,1.43-5.62,2.15-3.03.97-6.47,1.81-10.34,2.54-3.87.72-7.78,1.4-11.7,2-3.93.61-7.54,1.15-10.81,1.63-6.53.98-12.34,2.51-17.42,4.63-5.09,2.12-9.02,4.96-11.8,8.53-2.78,3.57-4.17,8.02-4.17,13.35s1.3,9.38,3.9,12.88c2.6,3.52,6.16,6.18,10.71,7.99,4.53,1.81,9.77,2.72,15.7,2.72Z"/>
      <path class="cls-3" d="M1110.58,962.84c-20.45,0-38.08-4.24-52.92-12.71-14.82-8.47-26.26-20.45-34.31-35.94-8.04-15.49-12.06-33.71-12.06-54.64s3.98-38.81,11.98-54.36c7.99-15.55,19.24-27.71,33.76-36.49,14.53-8.78,31.53-13.16,51.02-13.16,13.43,0,26.44,1.96,37.94,6.32,11.5,4.35,21.02,9.38,29.67,17.91,8.65,8.53,15.37,20.83,20.15,33.59,4.78,12.77,7.17,27.51,7.17,44.2v14.06c0,.56-.46,1.02-1.02,1.02h-168.04c-.56,0-1.02-.46-1.02-1.02v-32.09c0-.56.46-1.02,1.02-1.02h136.78c1.15,0,1.42,1.6.34,1.98l-18.26,6.44c-.66.23-1.35-.26-1.36-.96-.14-9.8-1.77-18.35-4.88-25.62-3.27-7.62-8.08-13.52-14.44-17.69-6.35-4.18-14.19-6.26-23.51-6.26s-17.25,2.11-23.78,6.35c-6.53,4.24-11.52,10.05-14.97,17.43-3.46,7.38-5.18,15.85-5.18,25.41v23.96c0,11.25,1.94,20.81,5.81,28.68,3.87,7.87,9.35,13.83,16.44,17.87,7.07,4.06,15.33,6.09,24.77,6.09,6.41,0,12.26-.94,17.52-2.82,5.27-1.88,9.74-4.6,13.43-8.16,3.51-3.4,6.23-7.54,8.16-12.41.17-.44.62-.71,1.09-.64l47.23,6.79c.61.09,1.01.7.84,1.3-3.21,11.15-8.75,20.91-16.66,29.28-8.16,8.65-18.39,15.37-30.67,20.15-12.29,4.78-26.29,7.17-42.03,7.17Z"/>
    </g>
    <ellipse class="cls-5" cx="750.22" cy="973.4" rx="538.42" ry="13.7"/>
    <path class="cls-3" d="M717.49,662.72v297.86c0,.56-.46,1.02-1.02,1.02h-49.08c-.56,0-1.02-.46-1.02-1.02v-297.86c0-.56.46-1.02,1.02-1.02h49.08c.56,0,1.02.46,1.02,1.02Z"/>
  </g>
</svg>