<?xml version="1.0" encoding="UTF-8"?>
<svg id="_레이어_1" data-name="레이어 1" xmlns="http://www.w3.org/2000/svg" xmlns:xlink="http://www.w3.org/1999/xlink" viewBox="0 0 1257.02 476.98">
  <defs>
    <style>
      .cls-1 {
        fill: #326d45;
      }

      .cls-2, .cls-3, .cls-4 {
        fill: #fff;
      }

      .cls-5 {
        fill: url(#millaeSun03);
      }

      .cls-3 {
        stroke-width: 7px;
      }

      .cls-3, .cls-4 {
        stroke: #fff;
        stroke-miterlimit: 10;
      }

      .cls-4 {
        stroke-width: 11px;
      }

      .cls-6 {
        fill: #fffab8;
      }
    
      .hero-turtle { transform-box: fill-box; transform-origin: center bottom; animation: d1-crawl 6s ease-in-out infinite; }
      @keyframes d1-crawl { 0%, 100% { transform: translateX(0); } 50% { transform: translateX(30px); } }
      @media (prefers-reduced-motion: reduce) { .hero-turtle { animation: none; } }
    </style>
    <linearGradient id="millaeSun03" data-name="무제 그라디언트 284" x1="491.25" y1="579.87" x2="498.68" y2="-340.57" gradientUnits="userSpaceOnUse">
      <stop offset=".06" stop-color="#ffdbb8"/>
      <stop offset=".06" stop-color="#ffd9b6"/>
      <stop offset=".21" stop-color="#ffb48d"/>
      <stop offset=".35" stop-color="#ff966a"/>
      <stop offset=".5" stop-color="#ff7e50"/>
      <stop offset=".65" stop-color="#ff6d3d"/>
      <stop offset=".81" stop-color="#ff6331"/>
      <stop offset=".98" stop-color="#ff602e"/>
    </linearGradient>
  </defs>
  <path class="cls-5" d="M951.5,460.24H32.95c-.53,0-.96-.43-.96-.97C32.51,205.42,238.25,0,492.23,0s459.72,205.42,460.24,459.27c0,.53-.43.97-.96.97Z"/>
  <g>
    <path class="cls-4" d="M75.67,453.79v-167.09c0-.53.43-.96.96-.96h41.43c.51,0,.93.4.96.91l1.78,37.45c.03.55-.41,1-.96,1h-1c-.63,0-1.1-.61-.93-1.22,2.68-9.8,6.53-17.85,11.55-24.16,5.22-6.57,11.35-11.42,18.4-14.52,7.03-3.1,14.44-5.09,22.2-5.09,12.41,0,22.63,4.32,30.66,12.09,7.82,7.56,13.39,18.87,16.74,33.9.13.6-.33,1.17-.94,1.17h-2.86c-.62,0-1.08-.59-.94-1.19,2.41-10.02,6.38-18.34,11.9-24.97,5.74-6.88,12.58-12.04,20.5-15.44,7.92-3.42,16.32-5.13,25.23-5.13,10.56,0,19.99,2.31,28.33,6.91,8.33,4.6,14.91,11.28,19.72,20.02,4.81,8.75,7.22,19.44,7.22,32.06v114.24c0,.53-.43.96-.96.96h-44.5c-.53,0-.96-.43-.96-.96v-105.39c0-9.83-2.64-17.16-7.93-21.97-5.27-4.81-11.79-7.22-19.56-7.22-5.89,0-11,1.27-15.28,3.81-4.3,2.54-7.61,6.08-9.94,10.64-2.33,4.55-3.49,9.93-3.49,16.14v103.99c0,.53-.43.96-.96.96h-42.95c-.53,0-.96-.43-.96-.96v-106.79c0-8.48-2.52-15.23-7.53-20.25-5.02-5.02-11.52-7.54-19.49-7.54-5.48,0-10.43,1.25-14.82,3.73-4.4,2.48-7.89,6.13-10.48,10.94-2.59,4.81-3.88,10.74-3.88,17.78v102.13c0,.53-.43.96-.96.96h-44.35c-.53,0-.96-.43-.96-.96Z"/>
    <path class="cls-3" d="M374.59,262.08c-7.05,0-13.05-2.3-18-6.9-4.96-4.59-7.43-10.21-7.43-16.86s2.47-12.26,7.43-16.86c4.96-4.59,10.96-6.89,18-6.89s13.03,2.3,17.93,6.89c4.9,4.59,7.36,10.22,7.36,16.86s-2.45,12.26-7.36,16.86c-4.9,4.6-10.89,6.9-17.93,6.9ZM351.76,452.21v-167.27c0-.53.43-.96.96-.96h43.75c.53,0,.96.43.96.96v167.27c0,.53-.43.96-.96.96h-43.75c-.53,0-.96-.43-.96-.96Z"/>
    <path class="cls-3" d="M549.09,172.59v279.5c0,.53-.43.96-.96.96h-46.06c-.53,0-.96-.43-.96-.96V172.59c0-.53.43-.96.96-.96h46.06c.53,0,.96.43.96.96Z"/>
    <path class="cls-3" d="M629.2,452.2c-12.04,0-22.83-2.1-32.36-6.3-9.53-4.2-17.03-10.48-22.48-18.82-5.45-8.35-8.18-18.71-8.18-31.09,0-10.56,1.93-19.36,5.8-26.41,3.85-7.04,9.13-12.71,15.84-17.03,6.69-4.31,14.33-7.58,22.91-9.79,8.57-2.22,17.57-3.77,26.99-4.68,11.02-1.14,19.87-2.19,26.57-3.15,6.71-.97,11.58-2.47,14.65-4.52,3.07-2.04,4.6-5.11,4.6-9.19v-.85c0-5.22-1.16-9.68-3.5-13.38-2.32-3.69-5.7-6.53-10.13-8.51-4.43-1.99-9.82-2.99-16.18-2.99s-12.12,1-16.94,2.99c-4.83,1.98-8.75,4.65-11.75,8-2.83,3.14-4.88,6.66-6.15,10.56-.14.44-.57.72-1.02.66l-44.99-5.72c-.57-.07-.95-.63-.82-1.18,2.67-10.9,7.58-20.26,14.74-28.07,7.38-8.06,16.8-14.23,28.28-18.48,11.47-4.26,24.52-6.39,39.17-6.39,10.67,0,20.81,1.25,30.4,3.75,9.59,2.51,18.14,6.36,25.64,11.58,7.5,5.23,13.38,11.85,17.63,19.85,4.26,8,6.38,17.57,6.38,28.7v125.93c0,.53-.43.96-.96.96h-46.63c-.53,0-.96-.43-.96-.96v-24.32c0-.53-.43-.96-.96-.96h0c-.35,0-.67.2-.84.51-3.03,5.7-7.01,10.73-11.91,15.08-5.05,4.5-11.1,7.98-18.14,10.48-7.04,2.5-15.27,3.75-24.69,3.75ZM643.51,416.61c8.06,0,15.1-1.59,21.12-4.77,6.02-3.17,10.73-7.43,14.13-12.78,3.4-5.32,5.12-11.35,5.12-18.05v-18.36c0-.71-.73-1.16-1.37-.86-1.42.67-3.17,1.34-5.27,2.02-2.84.91-6.07,1.7-9.71,2.38-3.63.68-7.3,1.31-10.98,1.87-3.69.58-7.07,1.08-10.14,1.53-6.13.92-11.58,2.36-16.34,4.35-4.77,1.99-8.46,4.66-11.08,8-2.61,3.35-3.91,7.52-3.91,12.52s1.22,8.8,3.66,12.09c2.44,3.3,5.79,5.8,10.05,7.5,4.26,1.7,9.17,2.55,14.73,2.55Z"/>
    <path class="cls-3" d="M843.38,454.21c-19.19,0-35.74-3.98-49.65-11.93-13.91-7.95-24.64-19.19-32.19-33.72-7.55-14.54-11.32-31.63-11.32-51.28s3.74-36.42,11.24-51.01c7.5-14.6,18.06-26.01,31.68-34.24,13.63-8.24,29.58-12.35,47.87-12.35,12.61,0,24.81,1.84,35.6,5.93,10.79,4.08,19.72,8.8,27.84,16.81,8.12,8.01,14.42,19.54,18.91,31.52,4.49,11.99,6.73,25.81,6.73,41.48v13.19c0,.53-.43.96-.96.96h-157.69c-.53,0-.96-.43-.96-.96v-30.12c0-.53.43-.96.96-.96h128.35c1.08,0,1.34,1.5.32,1.86l-17.14,6.04c-.62.22-1.26-.24-1.27-.9-.13-9.2-1.66-17.22-4.58-24.04-3.07-7.15-7.58-12.69-13.55-16.6-5.96-3.92-13.32-5.88-22.06-5.88s-16.18,1.98-22.31,5.96c-6.13,3.98-10.81,9.43-14.04,16.36-3.24,6.92-4.87,14.87-4.87,23.84v22.49c0,10.56,1.82,19.53,5.45,26.91,3.63,7.38,8.78,12.97,15.42,16.77,6.64,3.81,14.39,5.72,23.25,5.72,6.02,0,11.5-.89,16.44-2.65,4.95-1.76,9.14-4.31,12.61-7.66,3.29-3.19,5.85-7.08,7.65-11.64.16-.41.58-.66,1.02-.6l44.32,6.37c.58.08.95.66.79,1.22-3.01,10.46-8.21,19.62-15.63,27.48-7.66,8.12-17.25,14.42-28.78,18.91-11.54,4.49-24.67,6.73-39.44,6.73Z"/>
  </g>
  <g class="hero-turtle"><path class="cls-1" d="M952.46,458.34c0,.53.43.97.96.97h267.54c.07-.22.07-.5.07-.72v-14.69c0-.22,0-.43-.07-.65,0-.22,0-.43-.07-.58-7.06-78.99-64.3-140.55-133.78-140.55-68.4,0-124.85,59.48-133.42,136.52-.82,6.46-1.19,13.04-1.22,19.7Z"/><circle class="cls-2" cx="1142.24" cy="353.51" r="10.98"/></g>
  <ellipse class="cls-6" cx="628.51" cy="464.12" rx="628.51" ry="12.86"/>
  
  <path class="cls-3" d="M474.52,172.59v279.5c0,.53-.43.96-.96.96h-46.06c-.53,0-.96-.43-.96-.96V172.59c0-.53.43-.96.96-.96h46.06c.53,0,.96.43.96.96Z"/>
</svg>