<?xml version="1.0" encoding="UTF-8"?>
<svg id="_레이어_1" data-name="레이어 1" xmlns="http://www.w3.org/2000/svg" xmlns:xlink="http://www.w3.org/1999/xlink" viewBox="0 0 1257.02 476.98">
  <defs>
    <style>
      .cls-1 {
        fill: #326d45;
      }

      .cls-2 {
        fill: #fff;
      }

      .cls-3 {
        fill: url(#millaeSun02);
      }

      .cls-4 {
        fill: #fffab8;
      }
    </style>
    <linearGradient id="millaeSun02" data-name="무제 그라디언트 284" x1="491.25" y1="579.88" x2="498.68" y2="-340.57" gradientUnits="userSpaceOnUse">
      <stop offset=".06" stop-color="#ffdbb8"/>
      <stop offset=".06" stop-color="#ffd9b6"/>
      <stop offset=".21" stop-color="#ffb48d"/>
      <stop offset=".35" stop-color="#ff966a"/>
      <stop offset=".5" stop-color="#ff7e50"/>
      <stop offset=".65" stop-color="#ff6d3d"/>
      <stop offset=".81" stop-color="#ff6331"/>
      <stop offset=".98" stop-color="#ff602e"/>
    </linearGradient>
  </defs>
  <path class="cls-3" d="M952.46,460.24H31.99C31.99,205.94,237.93,0,492.23,0s460.24,205.94,460.24,460.24Z"/>
  <g>
    <path class="cls-2" d="M75.67,454.75v-181.01h43.31l1.87,51.37h-3.26c2.69-10.35,6.65-18.81,11.88-25.38,5.22-6.57,11.35-11.42,18.4-14.52,7.03-3.1,14.44-5.09,22.2-5.09,12.41,0,22.63,4.32,30.66,12.09,8.02,7.76,13.68,19.46,16.99,35.08h-5.27c2.38-10.56,6.44-19.27,12.18-26.16,5.74-6.88,12.58-12.04,20.5-15.44,7.92-3.42,16.32-5.13,25.23-5.13,10.56,0,19.99,2.31,28.33,6.91,8.33,4.6,14.91,11.28,19.72,20.02,4.81,8.75,7.22,19.44,7.22,32.06v115.2h-46.42v-106.34c0-9.83-2.64-17.16-7.93-21.97-5.27-4.81-11.79-7.22-19.56-7.22-5.89,0-11,1.27-15.28,3.81-4.3,2.54-7.61,6.08-9.94,10.64-2.33,4.55-3.49,9.93-3.49,16.14v104.95h-44.87v-107.75c0-8.48-2.52-15.23-7.53-20.25-5.02-5.02-11.52-7.54-19.49-7.54-5.48,0-10.43,1.25-14.82,3.73-4.4,2.48-7.89,6.13-10.48,10.94-2.59,4.81-3.88,10.74-3.88,17.78v103.08h-46.26Z"/>
    <path class="cls-2" d="M374.59,262.08c-7.05,0-13.05-2.3-18-6.9-4.96-4.59-7.43-10.21-7.43-16.86s2.47-12.26,7.43-16.86c4.96-4.59,10.96-6.89,18-6.89s13.03,2.3,17.93,6.89c4.9,4.59,7.36,10.22,7.36,16.86s-2.45,12.26-7.36,16.86c-4.9,4.6-10.89,6.9-17.93,6.9ZM351.76,453.17v-169.18h45.66v169.18h-45.66Z"/>
    <path class="cls-2" d="M466.22,215.75v237.42h-42.27v-237.42h42.27Z"/>
    <path class="cls-2" d="M543.38,215.75v237.42h-42.27v-237.42h42.27Z"/>
    <path class="cls-2" d="M627.23,454.12c-12.04,0-22.83-2.1-32.36-6.3-9.53-4.2-17.03-10.48-22.48-18.82-5.45-8.35-8.18-18.71-8.18-31.09,0-10.56,1.93-19.36,5.8-26.41,3.85-7.04,9.13-12.71,15.84-17.03,6.69-4.31,14.33-7.58,22.91-9.79,8.57-2.22,17.57-3.77,26.99-4.68,11.02-1.14,19.87-2.19,26.57-3.15,6.71-.97,11.58-2.47,14.65-4.52,3.07-2.04,4.6-5.11,4.6-9.19v-.85c0-5.22-1.16-9.68-3.5-13.38-2.32-3.69-5.7-6.53-10.13-8.51-4.43-1.99-9.82-2.99-16.18-2.99s-12.12,1-16.94,2.99c-4.83,1.98-8.75,4.65-11.75,8-3.01,3.35-5.14,7.12-6.38,11.32l-46.84-5.96c2.61-11.35,7.6-21.06,14.99-29.12,7.38-8.06,16.8-14.23,28.28-18.48,11.47-4.26,24.52-6.39,39.17-6.39,10.67,0,20.81,1.25,30.4,3.75,9.59,2.51,18.14,6.36,25.64,11.58,7.5,5.23,13.38,11.85,17.63,19.85,4.26,8,6.38,17.57,6.38,28.7v126.89h-48.55v-26.23h-1.53c-3.06,5.91-7.13,11.11-12.18,15.58-5.05,4.5-11.1,7.98-18.14,10.48-7.04,2.5-15.27,3.75-24.69,3.75ZM641.54,418.52c8.06,0,15.1-1.59,21.12-4.77,6.02-3.17,10.73-7.43,14.13-12.78,3.4-5.32,5.12-11.35,5.12-18.05v-19.93c-1.6.91-3.81,1.82-6.65,2.73s-6.07,1.7-9.71,2.38c-3.63.68-7.3,1.31-10.98,1.87-3.69.58-7.07,1.08-10.14,1.53-6.13.92-11.58,2.36-16.34,4.35-4.77,1.99-8.46,4.66-11.08,8-2.61,3.35-3.91,7.52-3.91,12.52s1.22,8.8,3.66,12.09c2.44,3.3,5.79,5.8,10.05,7.5,4.26,1.7,9.17,2.55,14.73,2.55Z"/>
    <path class="cls-2" d="M843.38,454.21c-19.19,0-35.74-3.98-49.65-11.93-13.91-7.95-24.64-19.19-32.19-33.72-7.55-14.54-11.32-31.63-11.32-51.28s3.74-36.42,11.24-51.01c7.5-14.6,18.06-26.01,31.68-34.24,13.63-8.24,29.58-12.35,47.87-12.35,12.61,0,24.81,1.84,35.6,5.93,10.79,4.08,19.72,8.8,27.84,16.81,8.12,8.01,14.42,19.54,18.91,31.52,4.49,11.99,6.73,25.81,6.73,41.48v14.15h-159.6v-32.03h134.91l-23.68,8.35c0-9.77-1.53-18.23-4.59-25.39-3.07-7.15-7.58-12.69-13.55-16.6-5.96-3.92-13.32-5.88-22.06-5.88s-16.18,1.98-22.31,5.96c-6.13,3.98-10.81,9.43-14.04,16.36-3.24,6.92-4.87,14.87-4.87,23.84v22.49c0,10.56,1.82,19.53,5.45,26.91,3.63,7.38,8.78,12.97,15.42,16.77,6.64,3.81,14.39,5.72,23.25,5.72,6.02,0,11.5-.89,16.44-2.65,4.95-1.76,9.14-4.31,12.61-7.66,3.46-3.36,6.11-7.48,7.92-12.35l46.16,6.64c-2.96,10.9-8.26,20.42-15.93,28.54-7.66,8.12-17.25,14.42-28.78,18.91-11.54,4.49-24.67,6.73-39.44,6.73Z"/>
  </g>
  <path class="cls-1" d="M952.46,459.3h268.5c.07-.22.07-.5.07-.72v-14.69c0-.22,0-.43-.07-.65,0-.22,0-.43-.07-.58-7.06-78.99-64.3-140.55-133.78-140.55-68.4,0-124.85,59.48-133.42,136.52-.86,6.77-1.22,13.68-1.22,20.67Z"/>
  <ellipse class="cls-4" cx="628.51" cy="464.12" rx="628.51" ry="12.86"/>
  <circle class="cls-2" cx="1142.24" cy="353.51" r="10.98"/>
</svg>