<?xml version="1.0" encoding="UTF-8"?>
<svg id="_레이어_1" data-name="레이어 1" xmlns="http://www.w3.org/2000/svg" xmlns:xlink="http://www.w3.org/1999/xlink" viewBox="0 0 1375.72 522.02">
  <defs>
    <style>
      .cls-1 {
        fill: #326d45;
      }

      .cls-2 {
        fill: #fff;
      }

      .cls-3 {
        fill: url(#millaeSun);
      }

      .cls-4 {
        fill: #fffab8;
      }
    </style>
    <linearGradient id="millaeSun" data-name="무제 그라디언트 284" x1="537.64" y1="634.63" x2="545.77" y2="-372.73" gradientUnits="userSpaceOnUse">
      <stop offset=".06" stop-color="#ffdbb8"/>
      <stop offset=".06" stop-color="#ffd9b6"/>
      <stop offset=".21" stop-color="#ffb48d"/>
      <stop offset=".35" stop-color="#ff966a"/>
      <stop offset=".5" stop-color="#ff7e50"/>
      <stop offset=".65" stop-color="#ff6d3d"/>
      <stop offset=".81" stop-color="#ff6331"/>
      <stop offset=".98" stop-color="#ff602e"/>
    </linearGradient>
  </defs>
  <path class="cls-3" d="M1042.4,503.7H35.01C35.01,225.39,260.39,0,538.71,0s503.7,225.39,503.7,503.7Z"/>
  <g>
    <path class="cls-2" d="M82.81,497.69v-198.1h47.4l2.04,56.22h-3.57c2.95-11.32,7.27-20.58,13-27.78,5.71-7.19,12.43-12.49,20.14-15.89,7.7-3.4,15.8-5.58,24.3-5.58,13.58,0,24.77,4.73,33.56,13.23,8.78,8.49,14.97,21.29,18.6,38.39h-5.77c2.6-11.55,7.04-21.09,13.33-28.63,6.29-7.53,13.77-13.17,22.43-16.9,8.66-3.74,17.86-5.61,27.62-5.61,11.55,0,21.88,2.52,31,7.56,9.12,5.04,16.32,12.35,21.58,21.91,5.27,9.58,7.91,21.27,7.91,35.09v126.08h-50.8v-116.39c0-10.76-2.89-18.78-8.67-24.05-5.77-5.27-12.91-7.91-21.41-7.91-6.45,0-12.04,1.39-16.73,4.16-4.7,2.78-8.33,6.65-10.88,11.65-2.55,4.98-3.82,10.87-3.82,17.67v114.86h-49.11v-117.92c0-9.28-2.75-16.67-8.24-22.17-5.5-5.5-12.61-8.25-21.33-8.25-6,0-11.42,1.37-16.22,4.08-4.82,2.72-8.64,6.71-11.47,11.98-2.83,5.27-4.25,11.75-4.25,19.46v112.82h-50.63Z"/>
    <path class="cls-2" d="M409.96,286.83c-7.71,0-14.28-2.51-19.71-7.55-5.42-5.03-8.13-11.18-8.13-18.45s2.71-13.42,8.13-18.45,11.99-7.54,19.71-7.54,14.26,2.51,19.63,7.54c5.37,5.03,8.05,11.19,8.05,18.45s-2.68,13.42-8.05,18.45c-5.37,5.04-11.91,7.55-19.63,7.55ZM384.98,495.96v-185.16h49.98v185.16h-49.98Z"/>
    <path class="cls-2" d="M510.24,42.22v453.75h-46.26V42.22h46.26Z"/>
    <path class="cls-2" d="M594.69,42.22v453.75h-46.26V42.22h46.26Z"/>
    <path class="cls-2" d="M680.49,497c-13.18,0-24.99-2.3-35.42-6.9-10.43-4.59-18.64-11.47-24.61-20.59-5.97-9.14-8.95-20.48-8.95-34.02,0-11.55,2.11-21.18,6.34-28.9,4.22-7.7,9.99-13.91,17.33-18.64,7.33-4.72,15.68-8.29,25.07-10.71,9.38-2.43,19.23-4.13,29.54-5.12,12.06-1.25,21.75-2.39,29.08-3.45,7.34-1.06,12.68-2.71,16.04-4.95,3.36-2.23,5.03-5.59,5.03-10.06v-.93c0-5.71-1.27-10.6-3.83-14.64-2.54-4.04-6.24-7.15-11.09-9.31-4.85-2.18-10.75-3.27-17.71-3.27s-13.27,1.1-18.54,3.27c-5.29,2.16-9.58,5.09-12.86,8.76-3.3,3.66-5.63,7.79-6.99,12.39l-51.27-6.52c2.86-12.42,8.32-23.05,16.4-31.87,8.08-8.82,18.39-15.57,30.95-20.23,12.55-4.66,26.84-7,42.87-7,11.68,0,22.77,1.37,33.27,4.1,10.5,2.74,19.85,6.96,28.06,12.68,8.21,5.73,14.64,12.96,19.3,21.73,4.66,8.76,6.99,19.23,6.99,31.4v138.87h-53.13v-28.71h-1.67c-3.35,6.47-7.8,12.16-13.33,17.06-5.53,4.92-12.15,8.74-19.85,11.47-7.7,2.73-16.72,4.1-27.02,4.1ZM696.15,458.04c8.82,0,16.53-1.74,23.11-5.22,6.58-3.47,11.74-8.13,15.47-13.98,3.73-5.83,5.6-12.42,5.6-19.75v-21.81c-1.75.99-4.17,1.99-7.28,2.98-3.11.99-6.65,1.86-10.62,2.61s-7.99,1.43-12.02,2.05c-4.04.63-7.74,1.18-11.1,1.67-6.71,1.01-12.68,2.58-17.89,4.76-5.22,2.18-9.26,5.1-12.12,8.76-2.86,3.66-4.28,8.23-4.28,13.71s1.33,9.63,4,13.23c2.67,3.61,6.33,6.34,11,8.21,4.66,1.86,10.03,2.79,16.12,2.79Z"/>
    <path class="cls-2" d="M914.55,503.72c-21,0-39.11-4.36-54.34-13.05-15.22-8.7-26.96-21-35.23-36.91-8.26-15.91-12.39-34.62-12.39-56.12s4.09-39.85,12.3-55.83c8.21-15.97,19.76-28.46,34.67-37.48,14.92-9.01,32.38-13.52,52.39-13.52,13.8,0,27.16,2.01,38.96,6.49,11.81,4.47,21.59,9.63,30.47,18.39,8.89,8.76,15.79,21.39,20.7,34.49,4.91,13.12,7.36,28.25,7.36,45.39v15.48h-174.67v-35.06h147.65l-25.92,9.14c0-10.69-1.67-19.95-5.02-27.78-3.36-7.83-8.3-13.88-14.83-18.16-6.52-4.29-14.58-6.43-24.14-6.43s-17.71,2.17-24.42,6.52c-6.71,4.36-11.83,10.32-15.37,17.9-3.55,7.58-5.32,16.28-5.32,26.1v24.61c0,11.56,1.99,21.37,5.97,29.46,3.98,8.08,9.6,14.2,16.88,18.35,7.26,4.17,15.75,6.26,25.44,6.26,6.58,0,12.59-.97,17.99-2.9,5.41-1.93,10.01-4.72,13.8-8.38,3.79-3.68,6.68-8.18,8.67-13.52l50.52,7.26c-3.24,11.93-9.04,22.34-17.43,31.23-8.38,8.89-18.88,15.79-31.5,20.7-12.63,4.91-27,7.36-43.17,7.36Z"/>
  </g>
  <path class="cls-1" d="M1042.4,502.67h293.86c.08-.24.08-.55.08-.79v-16.08c0-.24,0-.47-.08-.71,0-.24,0-.47-.08-.63-7.72-86.45-70.37-153.82-146.42-153.82-74.86,0-136.64,65.09-146.02,149.41-.95,7.41-1.34,14.97-1.34,22.62Z"/>
  <ellipse class="cls-4" cx="687.86" cy="507.94" rx="687.86" ry="14.07"/>
  <circle class="cls-2" cx="1250.1" cy="386.9" r="12.02"/>
</svg>